<svg id="Layer_1" data-name="Layer 1" xmlns="http://www.w3.org/2000/svg" viewBox="0 0 48 48"><defs><style>.cls-1{fill:#28b463;}</style></defs><title>AttachmentsFixed</title><path d="M13.79,36.58a11.07,11.07,0,0,1-4.85-.69,12.53,12.53,0,0,1-4.15-2.76A14.61,14.61,0,0,1,2,29a12.11,12.11,0,0,1-1-4.85,14.29,14.29,0,0,1,1.73-6.57,14,14,0,0,1,4.49-4.49,14.3,14.3,0,0,1,6.58-1.73H38a8.64,8.64,0,0,1,6.22,2.76C46.3,15.83,47,17.91,47,20.67a8.64,8.64,0,0,1-2.77,6.58A8.32,8.32,0,0,1,38,29.67H18.28a5.51,5.51,0,0,1-4.15-1.39,7.14,7.14,0,0,1-1.73-4.15,5.91,5.91,0,0,1,5.88-5.88h17.3v3.46H18.28a2.69,2.69,0,0,0-1.73.69,2.69,2.69,0,0,0-.69,1.73c0,.7.35,1,.69,1.73a2.58,2.58,0,0,0,1.73.35H38a5.23,5.23,0,0,0,3.8-1.38,7.2,7.2,0,0,0,1.73-4.16,5.74,5.74,0,0,0-1.73-4.15A5.58,5.58,0,0,0,38,14.8H13.79a8.86,8.86,0,0,0-6.58,2.76,8.89,8.89,0,0,0-2.76,6.57A10.14,10.14,0,0,0,7.21,30.7a8.63,8.63,0,0,0,6.58,2.43H35.58v3.45Z"/><path class="cls-1" d="M47,1V47H1V1H47m1-1H0V48H48V0Z"/></svg>