<svg id="Layer_1" data-name="Layer 1" xmlns="http://www.w3.org/2000/svg" viewBox="0 0 48 27.43"><defs><style>.cls-1{fill:#757575;}.cls-2{fill:#ff5733;}</style></defs><title>Attachments</title><path class="cls-1" d="M14.8,26.46a12.15,12.15,0,0,1-4.68-.94,13.34,13.34,0,0,1-3.95-2.6,13.21,13.21,0,0,1-2.6-4,12.3,12.3,0,0,1-.94-4.68A12.42,12.42,0,0,1,4.19,8.16,12.6,12.6,0,0,1,8.66,3.69,11.84,11.84,0,0,1,14.8,2H38.09a8.51,8.51,0,0,1,6.24,2.6A8.62,8.62,0,0,1,46.93,11a8.54,8.54,0,0,1-2.6,6.24,8.54,8.54,0,0,1-6.24,2.6H19.27a5.57,5.57,0,0,1-3.95-1.56,5.54,5.54,0,0,1,0-7.91,5.42,5.42,0,0,1,3.95-1.66H35.91V12H19.27a2.26,2.26,0,0,0-1.66.73,2.23,2.23,0,0,0,0,3.11,2.46,2.46,0,0,0,1.66.63H38.09a5.24,5.24,0,0,0,3.85-1.56,5.53,5.53,0,0,0,0-7.9,5.08,5.08,0,0,0-3.85-1.67H14.8A8.51,8.51,0,0,0,8.56,8,8.66,8.66,0,0,0,6,14.29a8.51,8.51,0,0,0,2.6,6.24,8.47,8.47,0,0,0,6.24,2.6H35.91v3.33Z" transform="translate(0 0)"/><path class="cls-2" d="M47,1V26.43H1V1H47m1-1H0V27.43H48V0Z" transform="translate(0 0)"/></svg>