<svg width="24" height="24" viewBox="0 0 13.31245 7.34375" xmlns="http://www.w3.org/2000/svg">
  <path d="M3.7 7.3C3.2 7.3 2.7 7.3 2.3 7.1 1.8 6.9 1.4 6.6 1.1 6.3 0.7 5.9 0.5 5.5 0.3 5.1 0.1 4.6 0 4.2 0 3.7 0 3 0.2 2.4 0.5 1.8 0.8 1.3 1.3 0.8 1.8 0.5 2.4 0.2 3 0 3.7 0H10.7C11.4 0 12 0.3 12.5 0.8 13.1 1.3 13.3 1.9 13.3 2.7 13.3 3.4 13.1 4 12.5 4.6 12 5.1 11.4 5.3 10.7 5.3H5C4.5 5.3 4.1 5.2 3.8 4.9 3.5 4.5 3.3 4.1 3.3 3.7 3.3 3.2 3.5 2.8 3.8 2.5 4.1 2.2 4.5 2 5 2H10V3H5C4.8 3 4.6 3.1 4.5 3.2 4.4 3.3 4.3 3.5 4.3 3.7 4.3 3.9 4.4 4 4.5 4.2 4.6 4.3 4.8 4.3 5 4.3H10.7C11.1 4.3 11.5 4.2 11.8 3.9 12.1 3.5 12.3 3.1 12.3 2.7 12.3 2.2 12.1 1.8 11.8 1.5 11.5 1.2 11.1 1 10.7 1H3.7C2.9 1 2.3 1.3 1.8 1.8 1.3 2.3 1 2.9 1 3.7 1 4.4 1.3 5 1.8 5.6 2.3 6.1 2.9 6.3 3.7 6.3H10V7.3H3.7Z"/>
</svg>