<svg width="10" height="14" viewBox="0 0 10 14" fill="none" xmlns="http://www.w3.org/2000/svg">
<path d="M5 6.65625C4.54167 6.65625 4.14583 6.5 3.8125 6.1875C3.5 5.85417 3.34375 5.45833 3.34375 5C3.34375 4.54167 3.5 4.15625 3.8125 3.84375C4.14583 3.51042 4.54167 3.34375 5 3.34375C5.45833 3.34375 5.84375 3.51042 6.15625 3.84375C6.48958 4.15625 6.65625 4.54167 6.65625 5C6.65625 5.45833 6.48958 5.85417 6.15625 6.1875C5.84375 6.5 5.45833 6.65625 5 6.65625ZM5 0.34375C4.14583 0.34375 3.36458 0.552083 2.65625 0.96875C1.94792 1.38542 1.38542 1.94792 0.96875 2.65625C0.552083 3.36458 0.34375 4.13542 0.34375 4.96875C0.34375 5.80208 0.583333 6.76042 1.0625 7.84375C1.45833 8.69792 1.98958 9.63542 2.65625 10.6562C3.15625 11.3646 3.69792 12.0833 4.28125 12.8125L5 13.6562L5.71875 12.8125C6.30208 12.0833 6.84375 11.3646 7.34375 10.6562C8.01042 9.63542 8.54167 8.69792 8.9375 7.84375C9.41667 6.76042 9.65625 5.80208 9.65625 4.96875C9.65625 4.13542 9.44792 3.36458 9.03125 2.65625C8.61458 1.94792 8.05208 1.38542 7.34375 0.96875C6.63542 0.552083 5.85417 0.34375 5 0.34375Z" fill="#0277BD"/>
</svg>
