<svg width="16" height="12" viewBox="0 0 16 12" fill="none" xmlns="http://www.w3.org/2000/svg">
<path d="M14.6562 0H1.34375C0.96875 0.0208333 0.65625 0.15625 0.40625 0.40625C0.15625 0.65625 0.0208333 0.96875 0 1.34375V10.6562C0.0208333 11.0312 0.15625 11.3438 0.40625 11.5938C0.65625 11.8438 0.96875 11.9792 1.34375 12H14.6562C15.0312 11.9792 15.3438 11.8438 15.5938 11.5938C15.8438 11.3438 15.9792 11.0312 16 10.6562V1.34375C15.9792 0.96875 15.8438 0.65625 15.5938 0.40625C15.3438 0.15625 15.0312 0.0208333 14.6562 0ZM14.6562 10.6562H1.34375V1.34375H14.6562V10.6562ZM9.34375 9.34375V8.5C9.34375 8.16667 9.13542 7.85417 8.71875 7.5625C8.36458 7.33333 7.90625 7.15625 7.34375 7.03125C6.86458 6.90625 6.41667 6.84375 6 6.84375C5.58333 6.84375 5.13542 6.90625 4.65625 7.03125C4.09375 7.15625 3.63542 7.33333 3.28125 7.5625C2.86458 7.85417 2.65625 8.16667 2.65625 8.5V9.34375H9.34375ZM6 2.65625C5.54167 2.65625 5.14583 2.82292 4.8125 3.15625C4.5 3.48958 4.34375 3.88542 4.34375 4.34375C4.34375 4.80208 4.5 5.19792 4.8125 5.53125C5.14583 5.84375 5.54167 6 6 6C6.45833 6 6.84375 5.84375 7.15625 5.53125C7.48958 5.19792 7.65625 4.80208 7.65625 4.34375C7.65625 3.88542 7.48958 3.48958 7.15625 3.15625C6.84375 2.82292 6.45833 2.65625 6 2.65625ZM9.34375 2.65625V3.34375H13.3438V2.65625H9.34375ZM9.34375 4V4.65625H13.3438V4H9.34375ZM9.34375 5.34375V6H12V5.34375H9.34375Z" fill="#757575"/>
</svg>
