<svg width="12" height="12" viewBox="0 0 12 12" fill="none" xmlns="http://www.w3.org/2000/svg">
<path d="M2.40625 5.1875C2.88542 6.125 3.5 6.97917 4.25 7.75C5.02083 8.5 5.875 9.11458 6.8125 9.59375L8.28125 8.125C8.46875 7.9375 8.69792 7.88542 8.96875 7.96875C9.71875 8.21875 10.5104 8.34375 11.3438 8.34375C11.5312 8.34375 11.6875 8.40625 11.8125 8.53125C11.9375 8.65625 12 8.8125 12 9V11.3438C12 11.5312 11.9375 11.6875 11.8125 11.8125C11.6875 11.9375 11.5312 12 11.3438 12C9.84375 12 8.39583 11.7188 7 11.1562C5.60417 10.5729 4.375 9.75 3.3125 8.6875C2.25 7.625 1.42708 6.39583 0.84375 5C0.28125 3.60417 0 2.15625 0 0.65625C0 0.46875 0.0625 0.3125 0.1875 0.1875C0.3125 0.0625 0.46875 0 0.65625 0H3C3.1875 0 3.34375 0.0625 3.46875 0.1875C3.59375 0.3125 3.65625 0.46875 3.65625 0.65625C3.65625 1.48958 3.78125 2.28125 4.03125 3.03125C4.11458 3.30208 4.0625 3.53125 3.875 3.71875L2.40625 5.1875Z" fill="#0277BD"/>
</svg>
